<svg width="76" height="75" viewBox="0 0 76 75" fill="none" xmlns="http://www.w3.org/2000/svg">
<path d="M64.425 7.20001H60.525V13.65C60.525 15.675 58.875 17.325 56.925 17.325H53.25C51.225 17.325 49.575 15.675 49.575 13.65V7.20001H26.1V13.65C26.1 15.675 24.45 17.325 22.5 17.325H18.825C16.8 17.325 15.15 15.675 15.15 13.65V7.20001H11.325C6.3 7.20001 2.25 11.325 2.25 16.275V62.175C2.25 67.2 6.3 71.25 11.325 71.25H64.425C69.45 71.25 73.5 67.2 73.5 62.175V16.275C73.5 11.325 69.45 7.20001 64.425 7.20001ZM67.875 62.175C67.875 64.05 66.3 65.625 64.425 65.625H11.325C9.45 65.625 7.875 64.05 7.875 62.175V27.075H67.875V62.175Z" fill="#D53541"/>
<path d="M16.8748 43.35H23.6998C24.9748 43.35 26.0248 42.3 26.0248 41.025V35.775C26.0248 34.5 24.9748 33.45 23.6998 33.45H16.8748C15.5998 33.45 14.5498 34.5 14.5498 35.775V41.025C14.5498 42.3 15.5998 43.35 16.8748 43.35Z" fill="#D53541"/>
<path d="M52.0501 43.35H58.8751C60.1501 43.35 61.2001 42.3 61.2001 41.025V35.775C61.2001 34.5 60.1501 33.45 58.8751 33.45H52.0501C50.7751 33.45 49.7251 34.5 49.7251 35.775V41.025C49.7251 42.3 50.7751 43.35 52.0501 43.35Z" fill="#D53541"/>
<path d="M34.4251 43.35H41.2501C42.5251 43.35 43.5751 42.3 43.5751 41.025V35.775C43.5751 34.5 42.5251 33.45 41.2501 33.45H34.4251C33.1501 33.45 32.1001 34.5 32.1001 35.775V41.025C32.1751 42.3 33.1501 43.35 34.4251 43.35Z" fill="#D53541"/>
<path d="M16.8748 59.4H23.6998C24.9748 59.4 26.0248 58.35 26.0248 57.075V51.825C26.0248 50.55 24.9748 49.5 23.6998 49.5H16.8748C15.5998 49.5 14.5498 50.55 14.5498 51.825V57.075C14.5498 58.425 15.5998 59.4 16.8748 59.4Z" fill="#D53541"/>
<path d="M52.0501 59.4H58.8751C60.1501 59.4 61.2001 58.35 61.2001 57.075V51.825C61.2001 50.55 60.1501 49.5 58.8751 49.5H52.0501C50.7751 49.5 49.7251 50.55 49.7251 51.825V57.075C49.7251 58.425 50.7751 59.4 52.0501 59.4Z" fill="#D53541"/>
<path d="M34.4251 59.4H41.2501C42.5251 59.4 43.5751 58.35 43.5751 57.075V51.825C43.5751 50.55 42.5251 49.5 41.2501 49.5H34.4251C33.1501 49.5 32.1001 50.55 32.1001 51.825V57.075C32.1751 58.425 33.1501 59.4 34.4251 59.4Z" fill="#D53541"/>
<path d="M18.8248 15H22.4998C23.2498 15 23.7748 14.4 23.7748 13.725V5.025C23.7748 4.275 23.1748 3.75 22.4998 3.75H18.8248C18.0748 3.75 17.5498 4.35 17.5498 5.025V13.65C17.4748 14.4 18.0748 15 18.8248 15Z" fill="#D53541"/>
<path d="M53.2501 15H56.9251C57.6751 15 58.2001 14.4 58.2001 13.725V5.025C58.2001 4.275 57.6001 3.75 56.9251 3.75H53.2501C52.5001 3.75 51.9751 4.35 51.9751 5.025V13.65C51.9751 14.4 52.5751 15 53.2501 15Z" fill="#D53541"/>
</svg>
