<svg width="87" height="75" viewBox="0 0 87 75" fill="none" xmlns="http://www.w3.org/2000/svg">
<g clip-path="url(#clip0_8:892)">
<path fill-rule="evenodd" clip-rule="evenodd" d="M2.88781 31.7301H8.24644C6.62234 29.4661 5.66474 26.6926 5.66474 23.6986C5.66474 16.0863 11.8574 9.89134 19.4708 9.89134C22.8507 9.89134 25.9534 11.1146 28.3595 13.1442C30.8003 5.37826 38.0325 0 46.2547 0C56.5989 0 65.007 8.40816 65.007 18.7523C65.007 23.7887 63.0202 28.363 59.7916 31.7301H65.1052C66.6993 31.7301 67.993 33.0239 67.993 34.618V39.3494L82.5984 32.1252C84.4928 31.0117 86.9463 32.3666 86.9463 34.6168V72.1122C86.9128 74.2157 84.7308 75.6561 82.7832 74.695L67.993 67.3819V72.1122C67.993 73.7063 66.6993 75 65.1052 75H2.88781C1.29374 75 0 73.7063 0 72.1122V34.618C0 33.0239 1.29374 31.7301 2.88781 31.7301ZM32.7305 31.7301C32.3158 31.2981 31.9219 30.8465 31.5499 30.3775C31.29 30.8453 31.0036 31.297 30.6928 31.7301H32.7305ZM9.78854 46.123C7.22993 46.123 7.22762 42.2302 9.78854 42.2302H28.5362C31.0971 42.2302 31.0948 46.123 28.5362 46.123H9.78854ZM38.736 42.2302C41.2969 42.2302 41.2946 46.123 38.736 46.123H36.3148C33.7562 46.123 33.7539 42.2302 36.3148 42.2302H38.736Z" fill="#D53541"/>
</g>
<defs>
<clipPath id="clip0_8:892">
<rect width="86.9463" height="75" fill="white"/>
</clipPath>
</defs>
</svg>
