<svg width="32" height="33" viewBox="0 0 32 33" fill="none" xmlns="http://www.w3.org/2000/svg">
<path fill-rule="evenodd" clip-rule="evenodd" d="M0 5.47363C0 2.71221 2.23858 0.473633 5 0.473633H27C29.7614 0.473633 32 2.71221 32 5.47363V27.4736C32 30.2351 29.7614 32.4736 27 32.4736H5C2.23858 32.4736 0 30.2351 0 27.4736V5.47363ZM16 8.47363C20.4 8.47363 24 12.0736 24 16.4736C24 20.4736 21.1 23.8736 17.1 24.4736V18.7736H19L19.4 16.4736H17.2V14.9736C17.2 14.3736 17.5 13.7736 18.5 13.7736H19.5V11.7736C19.5 11.7736 18.6 11.5736 17.7 11.5736C15.9 11.5736 14.7 12.6736 14.7 14.6736V16.4736H12.7V18.7736H14.7V24.3736C10.9 23.7736 8 20.4736 8 16.4736C8 12.0736 11.6 8.47363 16 8.47363Z" fill="white"/>
</svg>
