<svg width="32" height="33" viewBox="0 0 32 33" fill="none" xmlns="http://www.w3.org/2000/svg">
<path d="M16 19.2736C14.5 19.2736 13.2 18.0736 13.2 16.4736C13.2 14.9736 14.4 13.6736 16 13.6736C17.5 13.6736 18.8 14.8736 18.8 16.4736C18.8 17.9736 17.5 19.2736 16 19.2736Z" fill="white"/>
<path fill-rule="evenodd" clip-rule="evenodd" d="M19.4 9.67363H12.6C11.8 9.77363 11.4 9.87363 11.1 9.97363C10.7 10.0736 10.4 10.2736 10.1 10.5736C9.86261 10.811 9.75045 11.0484 9.61489 11.3353C9.57916 11.411 9.5417 11.4902 9.5 11.5736C9.48453 11.62 9.46667 11.6688 9.44752 11.7212C9.34291 12.007 9.2 12.3974 9.2 13.0736V19.8736C9.3 20.6736 9.4 21.0736 9.5 21.3736C9.6 21.7736 9.8 22.0736 10.1 22.3736C10.3374 22.611 10.5748 22.7232 10.8617 22.8587C10.9374 22.8945 11.0165 22.9319 11.1 22.9736C11.1464 22.9891 11.1952 23.007 11.2475 23.0261C11.5333 23.1307 11.9238 23.2736 12.6 23.2736H19.4C20.2 23.1736 20.6 23.0736 20.9 22.9736C21.3 22.8736 21.6 22.6736 21.9 22.3736C22.1374 22.1362 22.2495 21.8989 22.3851 21.6119C22.4209 21.5363 22.4583 21.4571 22.5 21.3736C22.5155 21.3272 22.5333 21.2784 22.5525 21.2261C22.6571 20.9403 22.8 20.5499 22.8 19.8736V13.0736C22.7 12.2736 22.6 11.8736 22.5 11.5736C22.4 11.1736 22.2 10.8736 21.9 10.5736C21.6626 10.3362 21.4252 10.2241 21.1383 10.0885C21.0627 10.0528 20.9833 10.0153 20.9 9.97363C20.8536 9.95816 20.8048 9.9403 20.7525 9.92115C20.4667 9.81654 20.0762 9.67363 19.4 9.67363ZM16 12.1736C13.6 12.1736 11.7 14.0736 11.7 16.4736C11.7 18.8736 13.6 20.7736 16 20.7736C18.4 20.7736 20.3 18.8736 20.3 16.4736C20.3 14.0736 18.4 12.1736 16 12.1736ZM21.4 12.0736C21.4 12.6259 20.9523 13.0736 20.4 13.0736C19.8477 13.0736 19.4 12.6259 19.4 12.0736C19.4 11.5213 19.8477 11.0736 20.4 11.0736C20.9523 11.0736 21.4 11.5213 21.4 12.0736Z" fill="white"/>
<path fill-rule="evenodd" clip-rule="evenodd" d="M0 5.47363C0 2.71221 2.23858 0.473633 5 0.473633H27C29.7614 0.473633 32 2.71221 32 5.47363V27.4736C32 30.2351 29.7614 32.4736 27 32.4736H5C2.23858 32.4736 0 30.2351 0 27.4736V5.47363ZM12.6 8.17363H19.4C20.3 8.27363 20.9 8.37363 21.4 8.57363C22 8.87363 22.4 9.07363 22.9 9.57363C23.4 10.0736 23.7 10.5736 23.9 11.0736C24.1 11.5736 24.3 12.1736 24.3 13.0736V19.8736C24.2 20.7736 24.1 21.3736 23.9 21.8736C23.6 22.4736 23.4 22.8736 22.9 23.3736C22.4 23.8736 21.9 24.1736 21.4 24.3736C20.9 24.5736 20.3 24.7736 19.4 24.7736H12.6C11.7 24.6736 11.1 24.5736 10.6 24.3736C10 24.0736 9.6 23.8736 9.1 23.3736C8.6 22.8736 8.3 22.3736 8.1 21.8736C7.9 21.3736 7.7 20.7736 7.7 19.8736V13.0736C7.8 12.1736 7.9 11.5736 8.1 11.0736C8.4 10.4736 8.6 10.0736 9.1 9.57363C9.6 9.07363 10.1 8.77363 10.6 8.57363C11.1 8.37363 11.7 8.17363 12.6 8.17363Z" fill="white"/>
</svg>
