<svg width="54" height="75" viewBox="0 0 54 75" fill="none" xmlns="http://www.w3.org/2000/svg">
<g clip-path="url(#clip0_8:897)">
<path d="M45.8054 2.09601C38.2742 -2.22638 28.5896 0.353192 24.2414 7.83994C19.8932 15.3267 22.4882 24.954 30.0195 29.2765C37.5507 33.599 47.2369 31.0203 51.5851 23.5335C55.9332 16.0468 53.3367 6.41849 45.8054 2.09601ZM21.9824 24.6637C21.0305 24.1154 19.8115 24.5056 19.3592 25.5024L0.164812 67.7788C-0.228115 68.6443 0.102856 69.6643 0.930794 70.1379L8.97415 74.7543C9.80017 75.2261 10.8516 75.0004 11.4076 74.2315L38.6454 36.5713C39.2878 35.6836 39.0179 34.4392 38.0644 33.8937L36.9776 33.2698C36.4044 32.942 35.7003 32.9406 35.1266 33.2692C32.8279 34.5886 30.0006 34.5899 27.7005 33.2725C25.4091 31.9513 24.0016 29.5189 24.0016 26.8838C24.0002 26.2241 23.6449 25.6156 23.0693 25.287L21.9824 24.6637ZM23.0582 41.2697C23.3222 41.4212 23.5536 41.6229 23.7392 41.8633C23.9248 42.1038 24.0609 42.3782 24.1398 42.6709C24.2188 42.9636 24.2389 43.269 24.1991 43.5695C24.1593 43.87 24.0604 44.1596 23.9079 44.4221C23.6001 44.9521 23.093 45.3389 22.4983 45.4973C21.9036 45.6557 21.27 45.5728 20.7367 45.2668C20.2035 44.9608 19.8145 44.4568 19.6551 43.8656C19.4958 43.2744 19.5792 42.6445 19.887 42.1144C20.0395 41.852 20.2424 41.6219 20.4843 41.4374C20.7261 41.2529 21.0022 41.1176 21.2966 41.0392C21.5911 40.9607 21.8982 40.9406 22.2005 40.9802C22.5027 41.0198 22.7942 41.1182 23.0582 41.2697Z" fill="#D53541"/>
</g>
<defs>
<clipPath id="clip0_8:897">
<rect width="53.6932" height="75" fill="white"/>
</clipPath>
</defs>
</svg>
