<svg width="32" height="32" viewBox="0 0 32 32" fill="none" xmlns="http://www.w3.org/2000/svg">
<path d="M16 0C7.17474 0 0 7.17474 0 16C0 24.8253 7.17474 32 16 32C24.8253 32 32 24.8253 32 16C32 7.17474 24.8253 0 16 0ZM22.2989 19.8063C22.2989 21.3221 20.9516 22.5347 19.3347 22.5347C17.7179 22.5347 16.3705 21.2884 16.3705 19.8063C16.3705 18.3242 17.7179 17.0779 19.3347 17.0779C19.5705 17.0779 19.8063 17.1116 20.0084 17.1453V13.0358L13.6084 13.5074V20.4463C13.6084 21.9621 12.2611 23.1747 10.6442 23.1747C8.99368 23.1747 7.68 21.9284 7.68 20.4463C7.68 18.9305 9.02737 17.7179 10.6442 17.7179C10.88 17.7179 11.1158 17.7516 11.3179 17.7853V9.73474C11.3179 9.12842 11.7895 8.62316 12.3958 8.58947L21.0863 7.94947C21.4232 7.91579 21.7263 8.05053 21.9621 8.25263C22.1979 8.45474 22.3326 8.79158 22.3326 9.09474V19.8063H22.2989Z" fill="url(#paint0_linear_56_30)"/>
<defs>
<linearGradient id="paint0_linear_56_30" x1="0" y1="0" x2="32" y2="32" gradientUnits="userSpaceOnUse">
<stop stop-color="#260B27"/>
<stop offset="1" stop-color="#D53541"/>
</linearGradient>
</defs>
</svg>
