<svg width="72" height="75" viewBox="0 0 72 75" fill="none" xmlns="http://www.w3.org/2000/svg">
<g clip-path="url(#clip0_8:910)">
<path d="M11.3449 55.2518C12.8919 55.2518 14.1463 53.9343 14.1463 52.3093C14.1463 50.6844 12.8919 49.3669 11.3449 49.3669C9.79782 49.3669 8.54346 50.6844 8.54346 52.3093C8.54346 53.9343 9.79782 55.2518 11.3449 55.2518ZM11.3449 51.5627C11.7351 51.5627 12.0557 51.8994 12.0557 52.3093C12.0557 52.7192 11.7351 53.0559 11.3449 53.0559C10.9546 53.0559 10.6341 52.7192 10.6341 52.3093C10.6201 51.8994 10.9407 51.5627 11.3449 51.5627Z" fill="#D53541"/>
<path d="M11.3449 64.0206C13.5192 64.0206 15.3031 62.1615 15.3031 59.8631C15.3031 57.5794 13.5331 55.7056 11.3449 55.7056C9.15676 55.7056 7.38672 57.5648 7.38672 59.8631C7.38672 62.1468 9.15676 64.0206 11.3449 64.0206ZM11.3449 57.9015C12.3763 57.9015 13.2125 58.7798 13.2125 59.8631C13.2125 60.9464 12.3763 61.8248 11.3449 61.8248C10.3136 61.8248 9.47732 60.9464 9.47732 59.8631C9.47732 58.7798 10.3136 57.9015 11.3449 57.9015Z" fill="#D53541"/>
<path d="M60.0143 55.2518C61.5613 55.2518 62.8157 53.9343 62.8157 52.3093C62.8157 50.6844 61.5613 49.3669 60.0143 49.3669C58.4673 49.3669 57.2129 50.6844 57.2129 52.3093C57.2129 53.9343 58.4673 55.2518 60.0143 55.2518ZM60.0143 51.5627C60.4045 51.5627 60.7251 51.8994 60.7251 52.3093C60.7251 52.7192 60.4045 53.0559 60.0143 53.0559C59.6241 53.0559 59.3035 52.7192 59.3035 52.3093C59.3035 51.8994 59.6241 51.5627 60.0143 51.5627Z" fill="#D53541"/>
<path d="M60.0144 64.0206C62.1886 64.0206 63.9726 62.1615 63.9726 59.8631C63.9726 57.5794 62.2025 55.7056 60.0144 55.7056C57.8401 55.7056 56.0562 57.5648 56.0562 59.8631C56.0701 62.1468 57.8401 64.0206 60.0144 64.0206ZM60.0144 57.9015C61.0457 57.9015 61.882 58.7798 61.882 59.8631C61.882 60.9464 61.0457 61.8248 60.0144 61.8248C58.983 61.8248 58.1468 60.9464 58.1468 59.8631C58.1607 58.7798 58.9969 57.9015 60.0144 57.9015Z" fill="#D53541"/>
<path d="M68.8226 64.7379H68.07V48.7081C68.07 47.5223 67.1501 46.5561 66.0212 46.5561H64.0421V22.0502H67.8888C69.4219 22.0502 70.6624 20.7473 70.6624 19.137V17.1461C70.6624 15.9018 69.9097 14.8038 68.7948 14.3939L64.9899 13.0032C64.8923 12.9154 64.7808 12.8568 64.6693 12.8129L36.5855 2.65334C36.0002 2.43375 35.3591 2.43375 34.7597 2.65334L2.56447 14.4086C1.44948 14.8185 0.696867 15.9164 0.696867 17.1607V19.1517C0.696867 20.762 1.93729 22.0648 3.4704 22.0648H7.31711V46.5561H5.338C4.20908 46.5561 3.28921 47.5223 3.28921 48.7081V58.9994V62.9227V64.7379H2.5366C1.14286 64.7379 0 65.9384 0 67.4023V69.847C0 71.3109 1.14286 72.5113 2.5366 72.5113H68.8226C70.2164 72.5113 71.3592 71.3109 71.3592 69.847V67.4023C71.3592 65.9237 70.2164 64.7379 68.8226 64.7379ZM65.9794 48.752V64.7379H54.063V48.752H65.9794ZM60.3348 28.1108H54.063V22.0502H54.1327L60.3348 28.1108ZM57.1989 22.0502H61.9515V26.6908L57.1989 22.0502ZM61.9515 30.3067V36.4405L55.6797 30.3067H61.9515ZM60.3348 37.8605H54.063V31.7267L60.3348 37.8605ZM61.9515 40.0564V46.1902L55.6797 40.0564H61.9515ZM59.2477 46.5561H54.063V41.491L59.2477 46.5561ZM3.4704 19.8543C3.09409 19.8543 2.78747 19.5323 2.78747 19.137V17.1461C2.78747 16.8387 2.96866 16.5752 3.2474 16.4727L35.4566 4.71746C35.596 4.6589 35.7632 4.6589 35.9026 4.71746L52.9759 10.8952C53.0595 10.9537 53.1431 10.9977 53.2407 11.0416L68.1118 16.4727C68.3906 16.5752 68.5718 16.8387 68.5718 17.1461V19.137C68.5718 19.5323 68.2651 19.8543 67.8888 19.8543H3.4704ZM51.9724 22.0502V64.7233H19.3869V22.0502H51.9724ZM17.2962 41.491V46.5561H12.1116L17.2962 41.491ZM9.40771 46.1902V40.0564H15.6795L9.40771 46.1902ZM11.0244 37.8605L17.2962 31.7267V37.8605H11.0244ZM9.40771 36.4405V30.3067H15.6795L9.40771 36.4405ZM11.0244 28.1108L17.2266 22.0502H17.2962V28.1108H11.0244ZM9.40771 26.6908V22.0502H14.1603L9.40771 26.6908ZM5.37982 48.752H17.2962V64.7379H5.37982V62.9227V58.9994V48.752ZM69.2686 69.8324C69.2686 70.0959 69.0735 70.3008 68.8226 70.3008H2.5366C2.28573 70.3008 2.0906 70.0959 2.0906 69.8324V67.3876C2.0906 67.1241 2.28573 66.9192 2.5366 66.9192H4.33452H68.8226C69.0735 66.9192 69.2686 67.1241 69.2686 67.3876V69.8324Z" fill="#D53541"/>
</g>
<defs>
<clipPath id="clip0_8:910">
<rect width="71.3592" height="75" fill="white"/>
</clipPath>
</defs>
</svg>
