<svg width="32" height="33" viewBox="0 0 32 33" fill="none" xmlns="http://www.w3.org/2000/svg">
<path fill-rule="evenodd" clip-rule="evenodd" d="M0 5.47363C0 2.71221 2.23858 0.473633 5 0.473633H27C29.7614 0.473633 32 2.71221 32 5.47363V27.4736C32 30.2351 29.7614 32.4736 27 32.4736H5C2.23858 32.4736 0 30.2351 0 27.4736V5.47363ZM22.1 11.9736C22.8 11.8736 23.4 11.7736 24 11.4736C23.6 12.1736 23 12.7736 22.3 13.1736C22.5 17.8736 19.1 22.9736 13 22.9736C11.2 22.9736 9.5 22.3736 8 21.4736C9.7 21.6736 11.5 21.1736 12.7 20.2736C11.2 20.2736 10 19.2736 9.6 17.9736C10.1 18.0736 10.6 17.9736 11.1 17.8736C9.6 17.4736 8.5 16.0736 8.5 14.5736C9 14.7736 9.5 14.9736 10 14.9736C8.6 13.9736 8.1 12.0736 9 10.5736C10.7 12.5736 13.1 13.8736 15.8 13.9736C15.3 11.9736 16.9 9.97363 19 9.97363C19.9 9.97363 20.8 10.3736 21.4 10.9736C22.2 10.7736 22.9 10.5736 23.5 10.1736C23.3 10.9736 22.8 11.5736 22.1 11.9736Z" fill="white"/>
</svg>
