<svg width="32" height="33" viewBox="0 0 32 33" fill="none" xmlns="http://www.w3.org/2000/svg">
<path d="M18.6 16.4736L14.4 14.0736V18.8736L18.6 16.4736Z" fill="white"/>
<path fill-rule="evenodd" clip-rule="evenodd" d="M0 5.47363C0 2.71221 2.23858 0.473633 5 0.473633H27C29.7614 0.473633 32 2.71221 32 5.47363V27.4736C32 30.2351 29.7614 32.4736 27 32.4736H5C2.23858 32.4736 0 30.2351 0 27.4736V5.47363ZM22.2 11.1736C22.9 11.3736 23.4 11.8736 23.6 12.5736C24 13.8736 24 16.4736 24 16.4736C24 16.4736 24 19.0736 23.7 20.3736C23.5 21.0736 23 21.5736 22.3 21.7736C21 22.0736 16 22.0736 16 22.0736C16 22.0736 10.9 22.0736 9.7 21.7736C9 21.5736 8.5 21.0736 8.3 20.3736C8 19.0736 8 16.4736 8 16.4736C8 16.4736 8 13.8736 8.2 12.5736C8.4 11.8736 8.90001 11.3736 9.60001 11.1736C10.9 10.8736 15.9 10.8736 15.9 10.8736C15.9 10.8736 21 10.8736 22.2 11.1736Z" fill="white"/>
</svg>
